name C:\Users\antoi\Documents\MyRepositories\upper-imu-dc\Results\main_tracking\Case_90\kinematics.mot
datacolumns 10
datarows 33
range 0.90000000 1.22000000
endheader 
time	clav_prot	clav_elev	scapula_abduction	scapula_elevation	scapula_upward_rot	scapula_winging	plane_elv	shoulder_elv	axial_rot	
          0.90000000	        -24.89720662	         -9.94960570	        -19.24444074	         -6.44852812	          5.04526374	          9.51631826	         -9.74493419	         22.07734033	         40.51895047	
          0.91000000	        -24.67901985	         -9.88640712	        -19.14981119	         -6.34289409	          5.06384747	          9.45110052	         -9.61308993	         22.11560708	         40.27934972	
          0.92000000	        -24.61046055	         -9.74036363	        -19.04314732	         -6.23172783	          5.09596961	          9.37808201	         -9.47306679	         22.15009241	         40.03947898	
          0.93000000	        -24.54293851	         -9.58023086	        -18.93317352	         -6.11406849	          5.14402970	          9.29594875	         -9.32254466	         22.17636400	         39.79784152	
          0.94000000	        -24.47630726	         -9.40577773	        -18.81926906	         -5.99003259	          5.20901910	          9.20455631	         -9.16064976	         22.19351458	         39.55431267	
          0.95000000	        -24.41029795	         -9.21678086	        -18.70070445	         -5.85967815	          5.29172432	          9.10381595	         -8.98622440	         22.20068444	         39.30913703	
          0.96000000	        -24.34460813	         -9.01324278	        -18.57676863	         -5.72317227	          5.39269106	          8.99379663	         -8.79812742	         22.19715975	         39.06275277	
          0.97000000	        -24.27895165	         -8.79540529	        -18.44683349	         -5.58081213	          5.51225370	          8.87471872	         -8.59532009	         22.18236080	         38.81566005	
          0.98000000	        -24.21308793	         -8.56375152	        -18.31039639	         -5.43302910	          5.65054206	          8.74694646	         -8.37692694	         22.15585892	         38.56835962	
          0.99000000	        -24.14684345	         -8.31899095	        -18.16711070	         -5.28037976	          5.80749164	          8.61097201	         -8.14227757	         22.11739039	         38.32131340	
          1.00000000	        -24.08012631	         -8.06202985	        -18.01680495	         -5.12352678	          5.98285983	          8.46739210	         -7.89092901	         22.06686159	         38.07492023	
          1.01000000	        -24.01293270	         -7.79392868	        -17.85948877	         -4.96321046	          6.17624679	          8.31687934	         -7.62266656	         22.00434359	         37.82950812	
          1.02000000	        -23.94534446	         -7.51585038	        -17.69534595	         -4.80021319	          6.38711766	          8.16015107	         -7.33748377	         21.93005824	         37.58534471	
          1.03000000	        -23.87751739	         -7.22900408	        -17.52471549	         -4.63531926	          6.61482154	          7.99793953	         -7.03554548	         21.84435989	         37.34266647	
          1.04000000	        -23.80966173	         -6.93458981	        -17.34806392	         -4.46927354	          6.85860419	          7.83096645	         -6.71714006	         21.74771719	         37.10172248	
          1.05000000	        -23.74201909	         -6.63374919	        -17.16595403	         -4.30274383	          7.11761602	          7.65992383	         -6.38263086	         21.64069619	         36.86282306	
          1.06000000	        -23.67483982	         -6.32752623	        -16.97901507	         -4.13629096	          7.39091778	          7.48546148	         -6.03241335	         21.52394509	         36.62637997	
          1.07000000	        -23.60836559	         -6.01684083	        -16.78791817	         -3.97035056	          7.67749030	          7.30818024	         -5.66688535	         21.39817701	         36.39292930	
          1.08000000	        -23.54281887	         -5.70247615	        -16.59335815	         -3.80522824	          7.97625004	          7.12863003	         -5.28642999	         21.26415008	         36.16312896	
          1.09000000	        -23.47840025	         -5.38508069	        -16.39604121	         -3.64110882	          8.28607301	          6.94731116	         -4.89141404	         21.12264264	         35.93773179	
          1.10000000	        -23.41529268	         -5.06518384	        -16.19667821	         -3.47807824	          8.60582372	          6.76467846	         -4.48219699	         20.97442616	         35.71753646	
          1.11000000	        -23.35367142	         -4.74322310	        -15.99598197	         -3.31615536	          8.93438761	          6.58114699	         -4.05915138	         20.82023655	         35.50332307	
          1.12000000	        -23.29371734	         -4.41957849	        -15.79466727	         -3.15532921	          9.27070302	          6.39709809	         -3.62269033	         20.66074674	         35.29577961	
          1.13000000	        -23.23563174	         -4.09460898	        -15.59345244	         -2.99559684	          9.61379069	          6.21288456	         -3.17329763	         20.49654177	         35.09542926	
          1.14000000	        -23.17964885	         -3.76868487	        -15.39305954	         -2.83699569	          9.96277723	          6.02883371	         -2.71155391	         20.32809797	         34.90256816	
          1.15000000	        -23.12604321	         -3.44221013	        -15.19421090	         -2.67962551	         10.31691079	          5.84524776	         -2.23815274	         20.15576639	         34.71722359	
          1.16000000	        -23.07513140	         -3.11563220	        -14.99762327	         -2.52365742	         10.67556783	          5.66240167	         -1.75390350	         19.97975934	         34.53913615	
          1.17000000	        -23.02726391	         -2.78943618	        -14.80399565	         -2.36932679	         11.03824716	          5.48053967	         -1.25972014	         19.80014467	         34.36777523	
          1.18000000	        -22.98280489	         -2.46412592	        -14.61399118	         -2.21690988	         11.40454418	          5.29987390	         -0.75659305	         19.61685765	         34.20239126	
          1.19000000	        -22.94212445	         -2.14021003	        -14.42823805	         -2.06670644	         11.77412929	          5.12058483	         -0.24557305	         19.42970770	         34.04205728	
          1.20000000	        -22.90555751	         -1.81816437	        -14.24730438	         -1.91899082	         12.14668380	          4.94282810	          0.27227068	         19.23842699	         33.88578677	
          1.21000000	        -22.87337957	         -1.49840830	        -14.07169271	         -1.77397911	         12.52185023	          4.76674359	          0.79586153	         19.04270804	         33.73260347	
          1.22000000	        -22.84567859	         -1.18130154	        -13.90166284	         -1.63179979	         12.89915875	          4.59247557	          1.32412307	         18.84228982	         33.58162531	
